# xmcd CD database file
#
# Track frame offsets:
#        150
#        11816
#        25282
#        42456
#        58586
#        75040
#        92142
#        107516
#        122366
#        139813
#        161235
#        175529
#        188887
#        202065
#        218663
#        235441
#        253695
#        269357
#
# Disc length: 3714 seconds
#
# Revision: 0
# Processed by: cddbd v1.5.2PL0 Copyright (c) Steve Scherf et al.
# Submitted via: CUERipper 2.1.6
#
DISCID=f50e8012
DTITLE=The Highwaymen - Live Battle Creek, Michigan '93
DYEAR=2018
DGENRE=Outlaw Country
TTITLE0=Amanda
TTITLE1=Get Rhythm
TTITLE2=Shipwrecked in the Eighties
TTITLE3=Still is Still Moving To Me
TTITLE4=Good Love
TTITLE5=Always On My Mind
TTITLE6=(Ghost) Riders in the Sky
TTITLE7=Long Black Veil
TTITLE8=I've Always Been Crazy
TTITLE9=Graceland
TTITLE10=When It All Comes Down
TTITLE11=Ragged Old Flag
TTITLE12=Dreaming My Dreams
TTITLE13=Crazy
TTITLE14=(Yabba Dabba Doo) The King Is Gone (And So Are You)
TTITLE15=Big River
TTITLE16=Orange Blossom Special
TTITLE17=On The Road Again
EXTD=
EXTT0=
EXTT1=
EXTT2=
EXTT3=
EXTT4=
EXTT5=
EXTT6=
EXTT7=
EXTT8=
EXTT9=
EXTT10=
EXTT11=
EXTT12=
EXTT13=
EXTT14=
EXTT15=
EXTT16=
EXTT17=
PLAYORDER=
